<svg id="WIP" xmlns="http://www.w3.org/2000/svg" viewBox="0 0 128 128"><defs><style>.cls-1,.cls-3,.cls-4{fill:#fff;}.cls-2{fill:#ebebeb;}.cls-3{fill-rule:evenodd;}.cls-4{opacity:0.22;}</style></defs><path class="cls-1" d="M.52,0V104h60V98h-54V6h92V63.36a13.23,13.23,0,0,1,6,3.19V0Z"/><rect class="cls-1" x="5.52" y="50" width="6" height="6"/><path class="cls-1" d="M70.81,50v.68a7.84,7.84,0,0,1,5,5.32h6.82V50ZM47.09,50v6H59V50ZM23.38,50v6H35.23V50Z"/><rect class="cls-1" x="94.52" y="50" width="6" height="6"/><rect class="cls-1" x="50.02" y="5.5" width="6" height="6"/><path class="cls-1" d="M50,70.78V82.64h6V70.78Zm0-23.71V58.93h6V47.07Zm0-23.71V35.21h6V23.36Z"/><rect class="cls-1" x="50.02" y="94.5" width="6" height="6"/><path class="cls-1" d="M127.48,58.09v48.26a9.13,9.13,0,0,1-1.71,5.37l-11.45,16a.77.77,0,0,1-.61.3H77.25a.74.74,0,0,1-.59-.31l-11.46-16a9.21,9.21,0,0,1-1.72-5.37V58.09a4.84,4.84,0,0,1,4.83-4.83h.24a4.87,4.87,0,0,1,4.59,4.94v45.5a7.63,7.63,0,0,0,1.45,4.51l9.71,13.54H85a.74.74,0,0,1,.73.74v1.7h19.48v-1.7a.73.73,0,0,1,.73-.74h.72l9.7-13.54a7.63,7.63,0,0,0,1.45-4.51V58.21a4.89,4.89,0,0,1,4.6-4.94h.23a4.83,4.83,0,0,1,4.82,4.6A1.77,1.77,0,0,1,127.48,58.09Z"/><rect class="cls-1" x="86.59" y="84.67" width="17.78" height="2.91"/><path class="cls-1" d="M95.48,128a10.36,10.36,0,0,1-10.35-10.35V76.36a10.35,10.35,0,1,1,20.7,0v41.29A10.36,10.36,0,0,1,95.48,128Zm0-59.07a7.43,7.43,0,0,0-7.43,7.43v41.29a7.43,7.43,0,1,0,14.86,0V76.36A7.43,7.43,0,0,0,95.48,68.93Z"/><g id="Side-Vents"><path class="cls-1" d="M90.61,96.76h-4a.73.73,0,1,1,0-1.45h4a.73.73,0,0,1,0,1.45Z"/><path class="cls-1" d="M90.61,94.72h-4a.73.73,0,1,1,0-1.45h4a.73.73,0,0,1,0,1.45Z"/><path class="cls-1" d="M90.61,92.2h-4a.73.73,0,0,1,0-1.46h4a.73.73,0,0,1,0,1.46Z"/><path class="cls-1" d="M90.61,90.2h-4a.73.73,0,0,1,0-1.46h4a.73.73,0,0,1,0,1.46Z"/></g><ellipse id="PowerButton" class="cls-2" cx="89.9" cy="99.64" rx="1.03" ry="1.95"/><path id="Back-of-Handle" class="cls-3" d="M96,97a3.57,3.57,0,0,1,1.23-.21A3.69,3.69,0,0,1,101,100.5v18.66a3.69,3.69,0,0,1-3.69,3.69,3.57,3.57,0,0,1-1.23-.21,3.7,3.7,0,0,0,2.46-3.48V100.5A3.7,3.7,0,0,0,96,97Z"/><path class="cls-1" d="M97.26,124.31a5.16,5.16,0,0,1-5.15-5.15V100.5a5.15,5.15,0,1,1,10.3,0v18.66A5.16,5.16,0,0,1,97.26,124.31Zm0-26A2.24,2.24,0,0,0,95,100.5v18.66a2.24,2.24,0,0,0,4.47,0V100.5A2.23,2.23,0,0,0,97.26,98.27Z"/><path id="Dome-Reflection" class="cls-3" d="M90.28,76.09c0-3.4,2.18-6.16,4.86-6.16l.34,0v0a1.32,1.32,0,0,0-.34,0c-1.78,0-3.21,2.76-3.21,6.16v.41h0v6.56H90.28Z"/><path class="cls-4" d="M102.92,76.36v41.3a7.44,7.44,0,0,1-14.87,0V76.36a7.44,7.44,0,0,1,14.87,0Z"/></svg>