<svg id="WIP" xmlns="http://www.w3.org/2000/svg" viewBox="0 0 128 128"><defs><style>.cls-1,.cls-3,.cls-4{fill:#fff;}.cls-2{fill:#ebebeb;}.cls-3{fill-rule:evenodd;}.cls-4{opacity:0.22;}</style></defs><path class="cls-1" d="M52.05,96.34V104a53.34,53.34,0,0,0,8.94-.78V95.43A44.55,44.55,0,0,1,52.05,96.34Zm-18-3.8-3.11,7a51.6,51.6,0,0,0,15.72,4.18l.78-7.61A44,44,0,0,1,34,92.54ZM19.09,81.72l-5.68,5.13A51.92,51.92,0,0,0,26.06,97.07l3.82-6.63A44.68,44.68,0,0,1,19.09,81.72ZM9.84,65.78,2.56,68.16A51.92,51.92,0,0,0,10,82.63l6.18-4.51A44.36,44.36,0,0,1,9.84,65.78Zm86.51-14V52A44.18,44.18,0,0,1,95,63.06,9.23,9.23,0,0,1,96,63a13.31,13.31,0,0,1,6.43,1.65A51.23,51.23,0,0,0,104,52v-.2ZM7.66,52c0-1.52.08-3,.23-4.55L.27,46.67A52.4,52.4,0,0,0,1.15,62.9l7.49-1.6A44.57,44.57,0,0,1,7.66,52ZM99.44,30.66l-7,3.14a44,44,0,0,1,3.63,13.38l7.61-.82A51.82,51.82,0,0,0,99.44,30.66ZM6.9,26.1A51.57,51.57,0,0,0,1.1,41.3l7.5,1.57a43.7,43.7,0,0,1,4.94-12.95ZM86.66,13.23l-5.1,5.71a44.21,44.21,0,0,1,8.77,10.74l6.61-3.86A51.87,51.87,0,0,0,86.66,13.23ZM21.32,10A52.18,52.18,0,0,0,9.86,21.53L16.06,26a44.79,44.79,0,0,1,9.79-9.84ZM67.91,2.48,65.57,9.77A43.82,43.82,0,0,1,77.94,16l4.49-6.21A51.7,51.7,0,0,0,67.91,2.48ZM41.05,1.15A51.74,51.74,0,0,0,25.88,7l3.85,6.62a44,44,0,0,1,12.92-5ZM46.42.29l.81,7.62a44.74,44.74,0,0,1,13.86.67l1.56-7.49A52.93,52.93,0,0,0,46.42.29Z"/><path class="cls-1" d="M46.71,63.6a11,11,0,0,0-10.6-8.37c-.52.05-1.06.05-1.57.12a10.73,10.73,0,0,0-8.76,7.32,9.2,9.2,0,0,0-.5,4.35,12.55,12.55,0,0,0,1.17,3.79,41.13,41.13,0,0,0,7.14,10.55,23.07,23.07,0,0,0,2,1.83,0,0,0,0,0,0,0,.76.76,0,0,0,1.08,0c.58-.5,1.18-1,1.71-1.5a40.34,40.34,0,0,0,4.29-5.38,34.27,34.27,0,0,0,3.35-6A10.42,10.42,0,0,0,46.71,63.6ZM36,73.1a7.24,7.24,0,1,1,7.3-7.22A7.23,7.23,0,0,1,36,73.1Z"/><path class="cls-1" d="M78.64,25.71a6.77,6.77,0,0,0-6.51-5.14c-.32,0-.65,0-1,.08a6.57,6.57,0,0,0-5.38,4.49,5.64,5.64,0,0,0-.31,2.67,7.89,7.89,0,0,0,.72,2.33,25.45,25.45,0,0,0,4.38,6.47,14.57,14.57,0,0,0,1.23,1.13h0a.46.46,0,0,0,.66,0c.36-.31.72-.59,1-.92a24.66,24.66,0,0,0,2.63-3.31,20.65,20.65,0,0,0,2.06-3.71A6.39,6.39,0,0,0,78.64,25.71Zm-6.56,5.84a4.45,4.45,0,1,1,4.48-4.44A4.45,4.45,0,0,1,72.08,31.55Z"/><path class="cls-1" d="M52.39,78.29a30.83,30.83,0,0,1-9.78,1.59h-.87l-.36,6s.45,0,1.23,0a36.42,36.42,0,0,0,11.78-1.94Zm3.15-1.43,3,5.21A22.39,22.39,0,0,0,61,80.42V71.2A12.82,12.82,0,0,1,55.54,76.86ZM58.75,58.4A17.66,17.66,0,0,1,61,60.71V58.09a7.62,7.62,0,0,1,.54-2.83Zm-5-13.59c0-.07,0-.14,0-.21l-6-.45q0,.33,0,.66V45c.07,4.73,4.08,7.89,8,11l1.93-2.3,1.79-2.41C56.66,49,53.79,46.74,53.76,44.81Zm10-10c-6.23,0-10.74,1.34-13.4,3.86L54.51,43c1.43-1.36,4.92-2.19,9.33-2.22Z"/><path class="cls-1" d="M128,58.09v48.26a9.13,9.13,0,0,1-1.71,5.37l-11.45,16a.77.77,0,0,1-.61.3H77.77a.74.74,0,0,1-.59-.31l-11.46-16A9.21,9.21,0,0,1,64,106.34V58.09a4.84,4.84,0,0,1,4.83-4.83h.24a4.87,4.87,0,0,1,4.59,4.94v45.5a7.63,7.63,0,0,0,1.45,4.51l9.71,13.54h.71a.74.74,0,0,1,.73.74v1.7h19.49v-1.7a.72.72,0,0,1,.72-.74h.72l9.7-13.54a7.63,7.63,0,0,0,1.45-4.51V58.21a4.89,4.89,0,0,1,4.6-4.94h.23a4.83,4.83,0,0,1,4.82,4.6A1.77,1.77,0,0,1,128,58.09Z"/><rect class="cls-1" x="87.11" y="84.67" width="17.78" height="2.91"/><path class="cls-1" d="M96,128a10.36,10.36,0,0,1-10.34-10.35V76.36a10.35,10.35,0,1,1,20.69,0v41.29A10.36,10.36,0,0,1,96,128Zm0-59.07a7.43,7.43,0,0,0-7.43,7.43v41.29a7.43,7.43,0,1,0,14.86,0V76.36A7.43,7.43,0,0,0,96,68.93Z"/><g id="Side-Vents"><path class="cls-1" d="M91.13,96.76h-4a.73.73,0,1,1,0-1.45h4a.73.73,0,1,1,0,1.45Z"/><path class="cls-1" d="M91.13,94.72h-4a.73.73,0,1,1,0-1.45h4a.73.73,0,1,1,0,1.45Z"/><path class="cls-1" d="M91.13,92.2h-4a.73.73,0,0,1,0-1.46h4a.73.73,0,0,1,0,1.46Z"/><path class="cls-1" d="M91.13,90.2h-4a.73.73,0,0,1,0-1.46h4a.73.73,0,0,1,0,1.46Z"/></g><ellipse id="PowerButton" class="cls-2" cx="90.42" cy="99.64" rx="1.03" ry="1.95"/><path id="Back-of-Handle" class="cls-3" d="M96.55,97a3.57,3.57,0,0,1,1.23-.21,3.69,3.69,0,0,1,3.69,3.69v18.66a3.69,3.69,0,0,1-3.69,3.69,3.57,3.57,0,0,1-1.23-.21A3.7,3.7,0,0,0,99,119.16V100.5A3.7,3.7,0,0,0,96.55,97Z"/><path class="cls-1" d="M97.78,124.31a5.16,5.16,0,0,1-5.15-5.15V100.5a5.15,5.15,0,0,1,10.3,0v18.66A5.16,5.16,0,0,1,97.78,124.31Zm0-26a2.24,2.24,0,0,0-2.24,2.23v18.66a2.24,2.24,0,0,0,4.47,0V100.5A2.23,2.23,0,0,0,97.78,98.27Z"/><path id="Dome-Reflection" class="cls-3" d="M90.8,76.09c0-3.4,2.18-6.16,4.86-6.16L96,70v0a1.32,1.32,0,0,0-.34,0c-1.77,0-3.21,2.76-3.21,6.16v.41h0v6.56H90.8Z"/><path class="cls-4" d="M103.44,76.36v41.3a7.44,7.44,0,0,1-14.87,0V76.36a7.44,7.44,0,0,1,14.87,0Z"/></svg>